<svg width="756" height="928" viewBox="0 0 756 928" fill="none" xmlns="http://www.w3.org/2000/svg">
<path d="M1147.54 257.876C1185.16 300.088 1195.84 359.868 1175.17 412.498L1067.27 687.289C1051.64 727.102 1019.75 758.348 979.628 773.17L587.229 918.124C552.337 931.013 513.9 930.478 479.379 916.623L140.781 780.723C92.7813 761.458 58.093 718.823 48.9928 667.909L2.60807 408.394C-6.49217 357.479 11.2796 305.468 49.6336 270.769L320.191 25.9902C347.775 1.03495 383.647 -12.7815 420.844 -12.777L839.16 -12.7269C881.933 -12.7217 922.67 5.54355 951.127 37.4765L1147.54 257.876Z" fill="white"/>
</svg>
